<svg id="Layer_1" data-name="Layer 1" xmlns="http://www.w3.org/2000/svg" viewBox="0 0 500 500"><defs><style>.cls-1{fill:#b37864;}.cls-2{fill:#f7c2b7;}.cls-3{fill:#ae6551;}.cls-4{fill:#c38773;}.cls-5{fill:#ef4677;}.cls-6{fill:#ef4678;}.cls-7{fill:#efafa0;}.cls-8{fill:#e8e8f2;}.cls-9{fill:#b07562;}.cls-10{fill:#010101;}</style></defs><path d="M302.6,40c2.55.73,5.13,1.35,7.62,2.21a38.84,38.84,0,0,1,26.39,36.3q.19,17.6-.05,35.18c0,2.59.89,3.86,3,5.08,7.9,4.57,15.67,9.36,23.54,14,2.88,1.69,5.07,3.72,4.42,7.34-.6,3.39-3.09,4.72-6.28,5.32-5.64,1.07-11.24,2.35-17.36,3.64,7.31,5.49,11.31,12.23,11.34,21a24.62,24.62,0,0,1-24.06,24.7c-6.8.18-6.7.19-6.91,7.07-.68,22.9-9.74,41.77-27.32,56.51l-2.26,1.92c7.35,4.63,11.87,11.09,13.16,19.6.34,2.27,2.08,2,3.42,2.28,13.86,3.34,27.79,6.43,41.62,9.93,25.23,6.4,41.13,25.94,43.4,51.81,2.41,27.45,5.37,54.85,8.25,82.25.43,4.13,0,7.57-3.65,10H99.15c-3.44-2.37-4.1-5.58-3.67-9.64q4-37.65,7.55-75.33c1.18-12.37,2.64-24.54,9.83-35.24C121.55,303,133.51,295,148.6,291.54q20.28-4.68,40.55-9.44c1.27-.3,2.74-.2,3-2.24,1.26-8.52,5.84-15,13.18-19.66-13.26-10.35-22.31-23.3-26.84-39.33a69.2,69.2,0,0,1-2.72-22.51c.17-3.19-.95-3.78-3.82-3.67-11.54.45-20.27-4.21-25.11-14.94a24.11,24.11,0,0,1,6.53-28.39l2.71-2.33c-6-1.29-11.6-2.62-17.24-3.63-3.25-.58-5.69-1.91-6.33-5.25-.69-3.61,1.5-5.65,4.4-7.34,7.88-4.6,15.64-9.41,23.53-14a5.06,5.06,0,0,0,3-5.12c-.17-11.21-.1-22.42-.07-33.63.06-20.34,13.13-35.89,33.14-39.5.32,0,.6-.36.9-.56h10c9.33.34,17.29,4.81,25.21,8.9,11.6,6,22.79,6.33,34.32.12,3.72-2,7.73-3.51,11.53-5.42A39.79,39.79,0,0,1,291.77,40Z"/><path class="cls-1" d="M195.21,297.39c4.71,7.4,12.26,11.64,18.82,17,3.19,2.6,6.44,5.16,9.82,7.51,2.23,1.55,2.33,2.35,0,3.95A95.15,95.15,0,0,0,182,403.69c0,5.47,2.17,7.65,7.77,7.66q17,0,34,0c5.51,0,7.56-2.14,7.69-7.78a100,100,0,0,1,16.25-52.84c2.27-3.52,2.3-3.51,4.63.1a99.78,99.78,0,0,1,16.21,52.46c.16,6.09,2.09,8.06,8.18,8.06q16.63,0,33.27,0c5.82,0,8.25-2.4,8-8.29-1.17-32.26-14.79-57.94-41.1-76.68-3.2-2.29-2.8-3.11,0-5.14,6.26-4.53,12.25-9.43,18.43-14.08,4.18-3.15,7.9-6.67,10.08-11.5.77-1.71,1.65-1.78,3.3-1.38,14.64,3.53,29.38,6.64,43.93,10.49,17.52,4.63,29.45,20.53,31.18,39.58,2.27,25,4.92,50,7.56,75,.37,3.47-.26,4.63-4,4.52-9.66-.28-19.34-.18-29,0-2.52,0-3.24-.67-3.23-3.21.11-16.89.05-33.78.07-50.67,0-2.24-.05-4.43-1.76-6.12a5.81,5.81,0,0,0-6.38-1.58,6.07,6.07,0,0,0-4.24,6.24q0,15.48,0,30.95c0,6.7-.25,13.42.1,20.1.2,3.77-1.2,4.31-4.52,4.3q-68.09-.15-136.15-.06c-13.92,0-27.85-.08-41.77.06-2.78,0-3.4-.81-3.38-3.47.12-17,0-34,.08-51.05,0-3.29-1-5.86-4.23-7.06-4.29-1.58-8.14,1.61-8.15,6.86-.05,16.5,0,33,0,49.51,0,.9-.07,1.81,0,2.71.18,1.79-.46,2.5-2.36,2.47-7.22-.13-14.44-.12-21.65-.16-1.88-3.25-.36-6.59,0-9.77,2.77-23.64,5.47-47.28,8.38-70.89,1.34-10.81,6.69-19.48,16.67-24.54,11-5.59,22.76-9.6,34.11-14.46C185.06,301.77,190.23,299.81,195.21,297.39Z"/><path class="cls-2" d="M311.89,182.76c-.48,9.33.92,20.43-1.45,31.42-6.31,29.3-32.85,49.71-63.45,48.6-29.25-1.06-54.44-24.09-58.2-53.39-1.53-11.93-.4-23.94-.66-35.92-.12-5.67,0-11.34,0-17,0-1.77.07-2.74,2.45-2.45a501.23,501.23,0,0,0,109.17,1.18c3.2-.31,6.42-.58,9.59-1.14,2.06-.37,2.65.14,2.63,2.24C311.83,164.54,311.89,172.79,311.89,182.76Z"/><path class="cls-1" d="M321.35,67.61a19.67,19.67,0,0,1,2.84,10.64c.12,11.09,0,22.17.1,33.26,0,1.76-.14,2.83-2.41,2.82q-66.9-.15-133.78-.17c-1.29-1.38-1-3.12-1.06-4.77,0-11.59-.08-23.19,0-34.78.1-11.38,8.72-18.55,20-16.8,8.32,1.28,15.47,5.58,22.93,9,5.67,2.6,11.36,4.91,17.64,5.33,7.25.48,14-1.33,20.51-4.51,5.32-2.62,10.67-5.18,16.18-7.35,13.53-5.32,25.72-3.21,36.32,7A2,2,0,0,0,321.35,67.61Z"/><path class="cls-3" d="M177.25,126.79c11.72,0,23.45-.11,35.18-.12,36.87,0,73.74,0,110.61-.07a17.63,17.63,0,0,1,10.83,3.05c3.09,2.19,6.45,4,9.54,6.86-8.19,1.33-16.35,2.84-24.56,4a502.91,502.91,0,0,1-78.62,4.66,514.49,514.49,0,0,1-79.1-7.83,4.9,4.9,0,0,1-1-.47A69.75,69.75,0,0,1,177.25,126.79Z"/><path class="cls-4" d="M195.21,297.39c-.2,1.76-1.61,2.06-2.94,2.62-15,6.25-30.19,12.24-45,18.95-11,5-16.07,14.42-17.22,26.32-.95,9.9-2.47,19.75-3.64,29.63s-2.16,19.54-3.27,29.31c-.74,6.47-1.55,12.93-2.32,19.39a87.29,87.29,0,0,0-8.87.19c-3.47.4-3.62-1.26-3.34-4,2.6-25.33,5.21-50.65,7.63-76,1.93-20.27,14.78-35.34,34.49-40,13.13-3.1,26.28-6.06,39.36-9.35C193.19,293.7,194.64,294.39,195.21,297.39Z"/><path class="cls-4" d="M321.35,67.61c-.73,1.07-1.26.26-1.8-.22C307.75,57,294.89,56.29,281,62.76c-7.77,3.6-15.17,8.09-23.77,9.82-9,1.8-17.24,0-25.38-3.72-7.92-3.6-15.46-8.08-24.17-9.86-10.89-2.23-19.52,4.59-19.53,15.75q0,19.71,0,39.41c-4,.11-9,1.67-11.6-.51s-.66-7.26-.73-11.08c-.12-7.6-.09-15.21,0-22.81.19-20,19.07-32.6,37.54-25,5.82,2.39,11.5,5.16,17.2,7.85q19.37,9.13,38.76.12c6.18-2.88,12.3-5.92,18.63-8.44C300.88,49.1,315.89,55.2,321.35,67.61Z"/><path class="cls-5" d="M206.61,399c-3.35,0-6.69-.06-10,0-1.72.05-2.12-.53-1.92-2.26q4.44-39.12,36.9-61.36c1.75-1.2,2.56-1.1,3.92.62,3.77,4.79,3.86,4.69.54,10.07a107.89,107.89,0,0,0-16.24,48.1c-.32,3.8-1.47,5.43-5.45,4.88A56.63,56.63,0,0,0,206.61,399Z"/><path class="cls-6" d="M293.16,399c-2.83,0-5.73-.36-8.49.09-3.91.63-4.08-1.7-4.32-4.4a110.18,110.18,0,0,0-15.55-47.26l-.8-1.32c-3.35-5.36-3.24-5.28.52-10.09,1.34-1.72,2.12-1.85,3.9-.62,21.55,14.81,33.84,35.13,36.82,61.13.27,2.34-.55,2.55-2.41,2.5C299.61,398.91,296.38,399,293.16,399Z"/><path class="cls-5" d="M295.76,283.81a13.59,13.59,0,0,1-5.35,11.46c-7.58,6-15.3,11.78-22.9,17.73-1.38,1.09-2.31,1.31-3.47-.22a11.11,11.11,0,0,0-2.78-2.65c-1.67-1.09-1.32-2.1-.44-3.5q11.1-17.64,22.09-35.35c1-1.71,2.13-1.82,3.81-1.16A15,15,0,0,1,295.76,283.81Z"/><path class="cls-5" d="M214.14,269.83c2-.43,2.38.63,2.91,1.49,7.37,11.77,14.7,23.57,22.14,35.3,1.09,1.72,1,3-.81,3.65-2,.76-2.29,5.3-5.53,2.89-8-6-16.12-12-23.79-18.46s-6-19.1,2.83-23.89A21.32,21.32,0,0,1,214.14,269.83Z"/><path class="cls-7" d="M267.2,273.12c-5.63,9-10.74,17.15-15.78,25.34-1,1.71-1.68,1.89-2.81.05-5-8.19-10.15-16.33-15.71-25.25A76.55,76.55,0,0,0,267.2,273.12Z"/><path class="cls-7" d="M175.74,170.05c0,3.34,0,6.68,0,10,0,.91.4,1.93-1.19,2.33-6.43,1.63-14.11-1.92-16.47-7.78a12.41,12.41,0,0,1,10.79-17c6.89-.45,6.89-.45,6.89,6.25Z"/><path class="cls-7" d="M324.27,169.78c0-3.33.07-6.68,0-10-.05-1.68.47-2.32,2.17-2.18,2.55.21,5.11-.24,7.64.59a12.48,12.48,0,0,1,8.74,13,12.63,12.63,0,0,1-10.63,11.11c-7.58,1.11-7.88.85-7.88-6.71Z"/><path class="cls-8" d="M249.92,330.89a6.18,6.18,0,1,1,6.25-6A6.23,6.23,0,0,1,249.92,330.89Z"/><path class="cls-9" d="M177.25,126.79c-5.54,3.67-11,7.4-17.17,10l-3.4-.3-.35-1C163.3,132.62,168.28,125.41,177.25,126.79Z"/><path d="M248.42,244.25a27.07,27.07,0,0,1-17.65-7.68c-2.94-2.78-3.28-6.22-1-8.91s6-2.87,9.25-.25c7.52,6,14.46,6.05,22,0,3.25-2.62,6.9-2.53,9.25.23s1.91,6.09-1,8.93C264.48,241.31,257.1,244.25,248.42,244.25Z"/><path class="cls-10" d="M219.06,179.29c0,6.29-1.92,9.19-6.12,9.24s-6.26-2.91-6.26-9.09c0-6.53,2-9.51,6.3-9.43S219.06,173,219.06,179.29Z"/><path class="cls-10" d="M280.94,179.19c0-6.26,2-9.17,6.18-9.18s6.2,2.9,6.2,9.15c0,6.46-2.06,9.51-6.37,9.37S280.94,185.54,280.94,179.19Z"/></svg>